<?xml version="1.0" encoding="UTF-8"?>
<svg version="1.1" xmlns="http://www.w3.org/2000/svg" width="60" height="60">
<path d="M0 0 C19.8 0 39.6 0 60 0 C60 19.8 60 39.6 60 60 C40.2 60 20.4 60 0 60 C0 40.2 0 20.4 0 0 Z " fill="#FC9836" transform="translate(0,0)"/>
<path d="M0 0 C10.95671982 -0.44419134 10.95671982 -0.44419134 16 3 C20.17441954 7.60625605 20.43212822 12.71119302 21.125 18.625 C21.27388672 19.80835938 21.27388672 19.80835938 21.42578125 21.015625 C21.66171109 23.0056419 21.83601666 25.00276701 22 27 C21 28 21 28 18.4375 28.0625 C17.633125 28.041875 16.82875 28.02125 16 28 C15.81824219 26.73542969 15.63648437 25.47085938 15.44921875 24.16796875 C15.1959595 22.50771368 14.94201761 20.84756263 14.6875 19.1875 C14.56955078 18.35412109 14.45160156 17.52074219 14.33007812 16.66210938 C14.20439453 15.85966797 14.07871094 15.05722656 13.94921875 14.23046875 C13.78425903 13.12288208 13.78425903 13.12288208 13.6159668 11.99291992 C12.85143771 9.51933653 12.07976187 8.53991002 10 7 C7.525 6.505 7.525 6.505 5 6 C5 13.59 5 21.18 5 29 C7.31 28.34 9.62 27.68 12 27 C13.53146378 23.99405579 13.53146378 23.99405579 14 21 C14.33 21 14.66 21 15 21 C15 23.64 15 26.28 15 29 C15.99 29.33 16.98 29.66 18 30 C13.52121237 33.75249774 10.71188081 35.14201715 4.875 35.125 C3.54082031 35.12886719 3.54082031 35.12886719 2.1796875 35.1328125 C0 35 0 35 -1 34 C-2.11375 33.9175 -3.2275 33.835 -4.375 33.75 C-8 33 -8 33 -9.9375 30.4375 C-10.288125 29.633125 -10.63875 28.82875 -11 28 C-9 26 -9 26 -7 24 C-6.319375 23.278125 -5.63875 22.55625 -4.9375 21.8125 C-3 20 -3 20 0 19 C0 17.68 0 16.36 0 15 C-0.66 14.67 -1.32 14.34 -2 14 C-1.34 14 -0.68 14 0 14 C0 9.38 0 4.76 0 0 Z " fill="#080303" transform="translate(17,11)"/>
<path d="M0 0 C0.7425 0.2475 1.485 0.495 2.25 0.75 C2.25 4.56446899 1.94375748 8.00370961 1.25 11.75 C0.59 12.41 -0.07 13.07 -0.75 13.75 C-4.1875 13.6875 -4.1875 13.6875 -7.75 12.75 C-9.6875 10.1875 -9.6875 10.1875 -10.75 7.75 C-9.41666667 6.41666667 -8.08333333 5.08333333 -6.75 3.75 C-5.7909375 2.6053125 -5.7909375 2.6053125 -4.8125 1.4375 C-2.75 -0.25 -2.75 -0.25 0 0 Z " fill="#040203" transform="translate(16.75,31.25)"/>
<path d="M0 0 C0.99 0 1.98 0 3 0 C2.979375 0.928125 2.95875 1.85625 2.9375 2.8125 C2.84230396 6.02286011 2.84230396 6.02286011 4 9 C7.47548841 8.46022435 7.47548841 8.46022435 11 7 C12.53146378 3.99405579 12.53146378 3.99405579 13 1 C13.33 1 13.66 1 14 1 C14 3.64 14 6.28 14 9 C14.99 9.33 15.98 9.66 17 10 C12.47787523 13.78880724 9.70210461 15.13898837 3.8125 15.0625 C2.224375 15.041875 0.63625 15.02125 -1 15 C-0.67 11.37 -0.34 7.74 0 4 C0.66 4 1.32 4 2 4 C1.34 2.68 0.68 1.36 0 0 Z " fill="#21130D" transform="translate(18,31)"/>
<path d="M0 0 C0.33 0 0.66 0 1 0 C1.33 1.98 1.66 3.96 2 6 C2.99 6.33 3.98 6.66 5 7 C5 4.69 5 2.38 5 0 C7.97 0 10.94 0 14 0 C15.125 2.25 15.125 2.25 16 5 C15.125 7.3125 15.125 7.3125 14 9 C11.03 8.505 11.03 8.505 8 8 C8 7.34 8 6.68 8 6 C7.34 6 6.68 6 6 6 C6 6.66 6 7.32 6 8 C4.33388095 8.042721 2.66617115 8.04063832 1 8 C0 7 0 7 -0.0625 3.4375 C-0.041875 2.303125 -0.02125 1.16875 0 0 Z " fill="#955926" transform="translate(40,31)"/>
<path d="M0 0 C1.65 0 3.3 0 5 0 C5.36122881 1.31057393 5.71380311 2.62353624 6.0625 3.9375 C6.25972656 4.66839844 6.45695312 5.39929687 6.66015625 6.15234375 C6.77230469 6.76207031 6.88445313 7.37179688 7 8 C6 9 6 9 3.4375 9.0625 C2.633125 9.041875 1.82875 9.02125 1 9 C0.67 6.03 0.34 3.06 0 0 Z " fill="#220B06" transform="translate(32,30)"/>
<path d="M0 0 C0.99 0 1.98 0 3 0 C3.33 2.97 3.66 5.94 4 9 C3.01 9.495 3.01 9.495 2 10 C0.35 8.35 -1.3 6.7 -3 5 C-1.6875 2.5 -1.6875 2.5 0 0 Z " fill="#1F110C" transform="translate(9,35)"/>
<path d="M0 0 C1.125 1.75 1.125 1.75 2 4 C1.125 6.25 1.125 6.25 0 8 C-2.97 7.505 -2.97 7.505 -6 7 C-6 5.02 -6 3.04 -6 1 C-5.34 2.32 -4.68 3.64 -4 5 C-3.01 5 -2.02 5 -1 5 C-0.67 3.35 -0.34 1.7 0 0 Z " fill="#2F1308" transform="translate(54,32)"/>
<path d="M0 0 C1.32 0 2.64 0 4 0 C4 1.65 4 3.3 4 5 C3.01 5.495 3.01 5.495 2 6 C2 5.34 2 4.68 2 4 C1.34 4 0.68 4 0 4 C0 2.68 0 1.36 0 0 Z " fill="#734A2B" transform="translate(34,32)"/>
</svg>
